<svg width="1783" height="804" viewBox="0 0 1783 804" fill="none" xmlns="http://www.w3.org/2000/svg">
<path d="M489.236 843.066H324.97V1381.25L513.011 1446.1V1459.07H7.24396V1446.1L195.286 1381.25V84.4156L0.759766 13.0894V0.121094H575.692C860.996 0.121094 1070.65 127.644 1070.65 384.85C1070.65 592.344 915.031 843.066 489.236 843.066ZM497.881 39.0263H324.97V804.161H456.815C783.186 804.161 934.484 670.155 934.484 417.271C934.484 194.647 783.186 39.0263 497.881 39.0263Z" fill="#121212"/>
<path d="M2180.29 1011.66H2193.26V1459.07H1136.34V1446.1L1330.86 1374.77V84.4156L1136.34 13.0894V0.121094H2160.84V447.531H2147.87C2134.9 402.141 2124.1 363.236 2115.45 328.654C2037.64 43.349 2035.48 39.0263 1892.83 39.0263H1460.55V700.414H1726.4C1866.89 700.414 1851.76 626.927 1920.93 436.724H1933.89V1003.01H1920.93C1851.76 808.484 1866.89 739.319 1726.4 739.319H1460.55V1420.16H1925.25C2067.9 1420.16 2070.06 1415.84 2147.87 1130.53C2156.52 1095.95 2167.33 1057.04 2180.29 1011.66Z" fill="#121212"/>
</svg>
